/* XPM */
static char *cinelerra[] = {
/* columns rows colors chars-per-pixel */
"31 32 187 2",
"   c #000000",
".  c #010101",
"X  c #020202",
"o  c #030303",
"O  c #040404",
"+  c #050505",
"@  c #060606",
"#  c #070707",
"$  c #090909",
"%  c #0A0A0A",
"&  c #0B0B0B",
"*  c #0C0C0C",
"=  c #0D0D0D",
"-  c #0E0E0E",
";  c #0F0F0F",
":  c #101010",
">  c #111111",
",  c #121212",
"<  c #131313",
"1  c #141414",
"2  c #161616",
"3  c #171717",
"4  c #181818",
"5  c #191919",
"6  c #1A1A1A",
"7  c #1B1B1B",
"8  c #1D1D1D",
"9  c #1E1E1E",
"0  c #1F1F1F",
"q  c #202020",
"w  c #212121",
"e  c #222222",
"r  c #232323",
"t  c #262626",
"y  c #272727",
"u  c #282828",
"i  c #292929",
"p  c #2A2A2A",
"a  c #2B2B2B",
"s  c #2C2C2C",
"d  c #2D2D2D",
"f  c #2E2E2E",
"g  c #2F2F2F",
"h  c #303030",
"j  c #313131",
"k  c #333333",
"l  c #353535",
"z  c #363636",
"x  c #373737",
"c  c #383838",
"v  c #393939",
"b  c #3A3A3A",
"n  c #3B3B3B",
"m  c #3C3C3C",
"M  c #3D3D3D",
"N  c #3E3E3E",
"B  c #3F3F3F",
"V  c #404040",
"C  c #414141",
"Z  c #424242",
"A  c #434343",
"S  c #444444",
"D  c #454545",
"F  c #464646",
"G  c #474747",
"H  c #484848",
"J  c #494949",
"K  c #4A4A4A",
"L  c #4B4B4B",
"P  c #4C4C4C",
"I  c #4D4D4D",
"U  c #4E4E4E",
"Y  c #4F4F4F",
"T  c #505050",
"R  c #515151",
"E  c #525252",
"W  c #535353",
"Q  c #545454",
"!  c #555555",
"~  c #565656",
"^  c #575757",
"/  c #595959",
"(  c #5A5A5A",
")  c #5B5B5B",
"_  c #5C5C5C",
"`  c #5D5D5D",
"'  c #5E5E5E",
"]  c #5F5F5F",
"[  c #616161",
"{  c #626262",
"}  c #636363",
"|  c #646464",
" . c #656565",
".. c #676767",
"X. c #686868",
"o. c #696969",
"O. c #6A6A6A",
"+. c #6B6B6B",
"@. c #6C6C6C",
"#. c #6D6D6D",
"$. c #6E6E6E",
"%. c #707070",
"&. c #717171",
"*. c #727272",
"=. c #737373",
"-. c #747474",
";. c #757575",
":. c #767676",
">. c #777777",
",. c #787878",
"<. c #797979",
"1. c #7A7A7A",
"2. c #7B7B7B",
"3. c #7C7C7C",
"4. c #7D7D7D",
"5. c #7E7E7E",
"6. c #7F7F7F",
"7. c #808080",
"8. c #818181",
"9. c #828282",
"0. c #838383",
"q. c #848484",
"w. c #858585",
"e. c #868686",
"r. c #878787",
"t. c #888888",
"y. c #8A8A8A",
"u. c #8B8B8B",
"i. c #8C8C8C",
"p. c #8D8D8D",
"a. c #8E8E8E",
"s. c #8F8F8F",
"d. c #909090",
"f. c #919191",
"g. c #929292",
"h. c #949494",
"j. c #959595",
"k. c #969696",
"l. c #979797",
"z. c #999999",
"x. c #9C9C9C",
"c. c #9D9D9D",
"v. c #9E9E9E",
"b. c #9F9F9F",
"n. c #A2A2A2",
"m. c #A3A3A3",
"M. c #A5A5A5",
"N. c #AAAAAA",
"B. c #ACACAC",
"V. c #B0B0B0",
"C. c #B1B1B1",
"Z. c #B3B3B3",
"A. c #B4B4B4",
"S. c #B5B5B5",
"D. c #B7B7B7",
"F. c #B8B8B8",
"G. c #BCBCBC",
"H. c #BDBDBD",
"J. c #C0C0C0",
"K. c #C1C1C1",
"L. c #C7C7C7",
"P. c #C8C8C8",
"I. c #C9C9C9",
"U. c #CACACA",
"Y. c #CECECE",
"T. c #CFCFCF",
"R. c #D1D1D1",
"E. c #D2D2D2",
"W. c #D5D5D5",
"Q. c #D7D7D7",
"!. c #D8D8D8",
"~. c #D9D9D9",
"^. c #DCDCDC",
"/. c #DDDDDD",
"(. c #DFDFDF",
"). c #E1E1E1",
"_. c #E3E3E3",
"`. c #E4E4E4",
"'. c #E7E7E7",
"]. c #E8E8E8",
"[. c #EEEEEE",
"{. c #F1F1F1",
"}. c #F5F5F5",
"|. c #F9F9F9",
" X c #FAFAFA",
".X c #FCFCFC",
"XX c #FEFEFE",
/* pixels */
"*.L A L R G G R G G R G G L G G R G G R G G L G G R G L L L *.",
"f   L 4.4.u.d.O.d.d.O.x.d.O.d.t.O.d.t.O.d.r.#.d.9.#.d.G     f ",
"x   r.R h.[.|.r.'.[.9.W.!.u.|.`.u.|.).d.|.W.h.|.Y.h.|.*.    v ",
"v   O.t._ M G ) d.O._ ; R L G A G G A G A G G G G G A a     x ",
"x   *.,.f G t.,.a x.t.3 R                               O   v ",
"j ; *._ 4.L n.n.d.Y./.: Q O 5 a a 5 : f f 3 5 9 e :   O     x ",
"a e [ _ ,.r.f ; ).K.I.e L : G G *.Q *.) *.O.) L G G         x ",
"a f _ R 4.V.R   d.`.`.j A   v R R v [ G | L v f _ L   O     x ",
"a f ) R r.Z.Z.f t.I.{.x.h._ x &     ; O O ; O O : ;     O   x ",
"t a _ 5 #.*.n.!.L.V.W.| : A *.r.G                       O   x ",
"f 3 x.M 3 & O Q u.I.F.A a : O 3 | r.f       O     O         x ",
"v   e _ #.*.:.V.M G.Z.5 [ /.K.F.) M 4.n.x.r._ u.r._ u.G     x ",
"x             Q v A u.    O.XX).Z.R.:.O.N.R.G.XX`.d.}.:.    v ",
"x   O O   O   G |     O O   #.n.f a L ,.) A V.x t f t 9     x ",
"x             3 9.,.t         A u.:     R x.:               x ",
"x                 A 4.#.G R L   a x.9         O     O       x ",
"v   O           O   : N.M.[ a     v #.  O   O               v ",
"x                 G x.a           x O.  O                   x ",
"x               #.r.;         & M u.e                       x ",
"x   O       : t._       : v *.9.u.:.  O                     x ",
"x       O   ,.G   5 Q ,.9.Z.v     9.O                       v ",
"x           9.  & x.Q e   L Q     :.a   O               O   x ",
"v           9.O   4.    O O d.:   G _                       x ",
"x   O       4.O O 9.O       M 4.  3 x._ R e       O         x ",
"x           9.  a *.  O       :.R   9 A R r.4.f             x ",
"x   O       r.  _ G         O O u.L &       t *.,.Q :   O   x ",
"x           4.; 4.;             O :.4.9.4.*.) A L Q x.e     x ",
"x       O   #.j ,.                    O 3 t M Q 4.M x [     x ",
"v         M h.5 :.                O               :.f |     x ",
"v   O v 4.#.5 & d.O   O O   O       O O O   O O M M.u.A   O v ",
"j   O.G.O.L | :.R                                 e e       f ",
"*.L | 9.d.9.| R G L L L L L L L L L L L L L L L G A A L L G *."
};
