/* XPM */
static char * cinelerra_cve_xpm[] = {
"32 32 301 2",
"  	c None",
". 	c #000000",
"+ 	c #505550",
"@ 	c #86A886",
"# 	c #737573",
"$ 	c #6A6A6A",
"% 	c #7D7D7D",
"& 	c #636363",
"* 	c #878787",
"= 	c #696969",
"- 	c #505050",
"; 	c #828282",
"> 	c #959595",
", 	c #4A4A4A",
"' 	c #4E4E4E",
") 	c #999999",
"! 	c #858585",
"~ 	c #555555",
"{ 	c #6C6C6C",
"] 	c #797979",
"^ 	c #414141",
"/ 	c #585858",
"( 	c #222222",
"_ 	c #4C594C",
": 	c #56A856",
"< 	c #888988",
"[ 	c #A9A9A9",
"} 	c #818181",
"| 	c #464646",
"1 	c #8D8D8D",
"2 	c #656565",
"3 	c #6F6F6F",
"4 	c #1A1A1A",
"5 	c #2A2A2A",
"6 	c #6E6E6E",
"7 	c #5E5E5E",
"8 	c #767676",
"9 	c #838383",
"0 	c #848484",
"a 	c #404040",
"b 	c #383A38",
"c 	c #A4C8A4",
"d 	c #454545",
"e 	c #232323",
"f 	c #494A49",
"g 	c #9CA49C",
"h 	c #949C94",
"i 	c #626262",
"j 	c #8B8B8B",
"k 	c #343434",
"l 	c #404440",
"m 	c #606F60",
"n 	c #4B504B",
"o 	c #363A36",
"p 	c #667366",
"q 	c #161616",
"r 	c #5E6C5E",
"s 	c #282A28",
"t 	c #525252",
"u 	c #717C71",
"v 	c #85B185",
"w 	c #2C2C2C",
"x 	c #EAEDEA",
"y 	c #E5F0E5",
"z 	c #FFFFFF",
"A 	c #D1E8D1",
"B 	c #A5B3A5",
"C 	c #4D4D4D",
"D 	c #384638",
"E 	c #4F9D4F",
"F 	c #559555",
"G 	c #56A056",
"H 	c #586758",
"I 	c #5CA65C",
"J 	c #222522",
"K 	c #373F37",
"L 	c #59A159",
"M 	c #121212",
"N 	c #494949",
"O 	c #8D9F8D",
"P 	c #689A68",
"Q 	c #869186",
"R 	c #F1F8F1",
"S 	c #0C860C",
"T 	c #A5D2A5",
"U 	c #C6E3C6",
"V 	c #9BC39B",
"W 	c #4C4C4C",
"X 	c #548254",
"Y 	c #567C56",
"Z 	c #4E634E",
"` 	c #425442",
" .	c #548E54",
"..	c #506650",
"+.	c #526E52",
"@.	c #538653",
"#.	c #484848",
"$.	c #7C9B7C",
"%.	c #629862",
"&.	c #728072",
"*.	c #B7DBB7",
"=.	c #108810",
"-.	c #57AB57",
";.	c #A3D1A3",
">.	c #9FCD9F",
",.	c #0F0F0F",
"'.	c #518B51",
").	c #506850",
"!.	c #537353",
"~.	c #527E52",
"{.	c #528552",
"].	c #546D54",
"^.	c #6E956E",
"/.	c #6DA26D",
"(.	c #111111",
"_.	c #A5C2A5",
":.	c #73B973",
"<.	c #4DA64D",
"[.	c #A9D4A9",
"}.	c #96CB96",
"|.	c #8A9D8A",
"1.	c #8D9C8D",
"2.	c #7BA37B",
"3.	c #557755",
"4.	c #435243",
"5.	c #425242",
"6.	c #3E473E",
"7.	c #69A169",
"8.	c #74AC74",
"9.	c #2B2F2B",
"0.	c #474747",
"a.	c #789778",
"b.	c #2F952F",
"c.	c #77AB77",
"d.	c #89B789",
"e.	c #8EC68E",
"f.	c #BDDEBD",
"g.	c #86C386",
"h.	c #9ECF9E",
"i.	c #3E9F3E",
"j.	c #008000",
"k.	c #2D952D",
"l.	c #88BC88",
"m.	c #A6C3A6",
"n.	c #4B9A4B",
"o.	c #506750",
"p.	c #040404",
"q.	c #6FA56F",
"r.	c #689D68",
"s.	c #565956",
"t.	c #729E72",
"u.	c #509F50",
"v.	c #359A35",
"w.	c #3C9C3C",
"x.	c #6EB26E",
"y.	c #58AC58",
"z.	c #7BBD7B",
"A.	c #58A358",
"B.	c #66A166",
"C.	c #4C9E4C",
"D.	c #279327",
"E.	c #7BAF7B",
"F.	c #4F574F",
"G.	c #101010",
"H.	c #475947",
"I.	c #3E4F3E",
"J.	c #333333",
"K.	c #8BAB8B",
"L.	c #2A952A",
"M.	c #60B060",
"N.	c #69A669",
"O.	c #626862",
"P.	c #303030",
"Q.	c #7D887D",
"R.	c #81AB81",
"S.	c #419941",
"T.	c #B1C2B1",
"U.	c #BBBCBB",
"V.	c #C1C1C1",
"W.	c #979797",
"X.	c #D6D6D6",
"Y.	c #575757",
"Z.	c #7CA07C",
"`.	c #529E52",
" +	c #3D503D",
".+	c #181818",
"++	c #728572",
"@+	c #4C9A4C",
"#+	c #479E47",
"$+	c #C5D3C5",
"%+	c #646464",
"&+	c #5A5A5A",
"*+	c #3C3C3C",
"=+	c #536253",
"-+	c #65A365",
";+	c #138913",
">+	c #359735",
",+	c #7B987B",
"'+	c #121312",
")+	c #191E19",
"!+	c #6C896C",
"~+	c #606960",
"{+	c #0A0A0A",
"]+	c #626F62",
"^+	c #80A180",
"/+	c #61A261",
"(+	c #3A9B3A",
"_+	c #128912",
":+	c #0E870E",
"<+	c #8AAE8A",
"[+	c #0E0E0E",
"}+	c #7D8A7D",
"|+	c #87AF87",
"1+	c #319631",
"2+	c #018001",
"3+	c #2B952B",
"4+	c #464A46",
"5+	c #2F332F",
"6+	c #8DAD8D",
"7+	c #168916",
"8+	c #67A567",
"9+	c #2E2E2E",
"0+	c #5A625A",
"a+	c #6FAA6F",
"b+	c #198C19",
"c+	c #67B367",
"d+	c #8CC48C",
"e+	c #A9B0A9",
"f+	c #6A726A",
"g+	c #479747",
"h+	c #0D860D",
"i+	c #5CA35C",
"j+	c #8CAB8C",
"k+	c #8BBF8B",
"l+	c #098409",
"m+	c #879F87",
"n+	c #99AF99",
"o+	c #6EAA6E",
"p+	c #697969",
"q+	c #1F201F",
"r+	c #060606",
"s+	c #8CAA8C",
"t+	c #75A575",
"u+	c #010101",
"v+	c #9FB89F",
"w+	c #6DA06D",
"x+	c #414841",
"y+	c #429C42",
"z+	c #333633",
"A+	c #95B295",
"B+	c #6D9E6D",
"C+	c #7D937D",
"D+	c #068306",
"E+	c #9EB39E",
"F+	c #667A66",
"G+	c #535953",
"H+	c #050505",
"I+	c #709270",
"J+	c #7DA77D",
"K+	c #1F8C1F",
"L+	c #649864",
"M+	c #576D57",
"N+	c #82A682",
"O+	c #168B16",
"P+	c #5B675B",
"Q+	c #303430",
"R+	c #80A080",
"S+	c #71A471",
"T+	c #6AA96A",
"U+	c #459E45",
"V+	c #209020",
"W+	c #1A8D1A",
"X+	c #5D9E5D",
"Y+	c #668666",
"Z+	c #272F27",
"`+	c #7AA47A",
" @	c #5EA25E",
".@	c #323232",
"+@	c #5A605A",
"@@	c #819181",
"#@	c #7E9B7E",
"$@	c #3D963D",
"%@	c #3F793F",
"&@	c #343634",
"*@	c #74AB74",
"=@	c #73A173",
"-@	c #649064",
";@	c #4B814B",
">@	c #1E1F1E",
",@	c #778D77",
"'@	c #64A364",
")@	c #6D9A6D",
"!@	c #4A4B4A",
"~@	c #ADC6AD",
"{@	c #637463",
"]@	c #141414",
"^@	c #A4B8A4",
"/@	c #5F955F",
"(@	c #5A8C5A",
"_@	c #608E60",
":@	c #5A675A",
"    . . . . . . . . . . . . . . . . . . . . . . . . . . . .     ",
"  . . . . . . . . . . . . . . . . . . . . . . . . . . . . . .   ",
". . . . . . . . . . . . . . . . . . . . . . . . . . . . . . . . ",
". . . . . + @ # $ % & * = - ; > , ' ) ! ~ { ] ^ / ( . . . . . . ",
". . . . . _ : < [ } | 1 2 . & 3 4 5 6 7 ( 8 9 , 0 a . . . . . . ",
". . . . . b c d e f g h i . j k l m n o p ( q r s t . . . . . . ",
". . . . . u v w x y z A B . C D E F G H I J K L M N . . . . . . ",
". . . . . O P Q R S T U V . W X Y . Z `  ...+.@.. #.. . . . . . ",
". . . . . $.%.&.*.=.-.;.>.,., '.).. . . !.~.{.].. | . . . . . . ",
". . . . . ^./.(._.:.<.[.}.|.1.2.3.. 4.5.6.7.8.9.. 0.. . . . . . ",
". . . . . a.b.c.d.e.f.g.h.i.j.k.l.m.n.o.p.q.r.. . #.. . . . . . ",
". . . . . s.t.u.v.w.x.y.z.j.A.B.C.D.E.F.G.H.I.. . N . . . . . . ",
". . . . . . . (.J.J.K.L.M.j.N.O.P.Q.R.S.T.U.V.W.X.Y.. . . . . . ",
". . . . . . . . . . Z.j.j.j.j.`. +. .+++@+#+$+%+&+*+. . . . . . ",
". . . . . . . . . . =+-+;+j.j.j.>+,+'+. )+!+~+. . . . . . . . . ",
". . . . . . . . . . . {+]+^+/+(+_+:+<+{+. . . . . . . . . . . . ",
". . . . . . . . . . . . [+}+|+1+2+j.3+4+. . . . . . . . . . . . ",
". . . . . . . . . . . 5+6+7+j.j.j.j.8+9+. . . . . . . . . . . . ",
". . . . . . . . . . 0+a+2+j.j.b+c+d+e+. . . . . . . . . . . . . ",
". . . . . . . . . f+g+j.h+i+j+k+l+j.m+. . . . . . . . . . . . . ",
". . . . . . . . . n+j.o+p+q+r+s+j.j.t+u+. . . . . . . . . . . . ",
". . . . . . . . . v+j.w+. . . x+S.j.y+z+. . . . . . . . . . . . ",
". . . . . . . . . A+j.B+. . . . C+h+D+E+F+G+H+. . . . . . . . . ",
". . . . . . . . . K.j.I+. . . . [+J+2+j.j.K+L+M+{+. . . . . . . ",
". . . . . . . . . N+O+P+. . . . . Q+R+S+T+U+V+W+X+Y+Z+. . . . . ",
". . . . . . . . . `+ @M . . . . . . . . [+.@+@@@#@$@%@. . . . . ",
". . . . . . . . &@*@=@. . . . . . . . . . . . . . -@;@. . . . . ",
". . . . . . >@,@'@D+)@. . . . . . . . . . . . . !@~@{@. . . . . ",
". . . . . ]@^@/@(@_@:@. . . . . . . . . . . . . . . . . . . . . ",
". . . . . . . . . . . . . . . . . . . . . . . . . . . . . . . . ",
"  . . . . . . . . . . . . . . . . . . . . . . . . . . . . . .   ",
"    . . . . . . . . . . . . . . . . . . . . . . . . . . . .     "};
